<svg xmlns:xlink="http://www.w3.org/1999/xlink" width="24" xmlns="http://www.w3.org/2000/svg" height="24" id="screenshot-8be0cec0-38dc-11ed-8f9a-4f82c0aca118" viewBox="0 0 24 24" style="-webkit-print-color-adjust: exact;" fill="none" version="1.1"><g id="shape-8be0cec0-38dc-11ed-8f9a-4f82c0aca118"><defs><clipPath id="frame-clip-8be0cec0-38dc-11ed-8f9a-4f82c0aca118-575cd430-38de-11ed-8cb0-a1ea6145bdaf" class="frame-clip"><rect rx="0" ry="0" x="0" y="0" width="24" height="24" transform="matrix(1,0,0,1,0,0)" style="fill: rgb(255, 255, 255); fill-opacity: 1;"/></clipPath></defs><g clip-path="url(#frame-clip-8be0cec0-38dc-11ed-8f9a-4f82c0aca118-575cd430-38de-11ed-8cb0-a1ea6145bdaf)"><clipPath id="frame-clip-8be0cec0-38dc-11ed-8f9a-4f82c0aca118-575cd430-38de-11ed-8cb0-a1ea6145bdaf" class="frame-clip"><rect rx="0" ry="0" x="0" y="0" width="24" height="24" transform="matrix(1,0,0,1,0,0)" style="fill: rgb(255, 255, 255); fill-opacity: 1;"/></clipPath><g id="fills-8be0cec0-38dc-11ed-8f9a-4f82c0aca118"><rect width="24" height="24" class="frame-background" x="0" transform="matrix(1,0,0,1,0,0)" style="fill: rgb(255, 255, 255); fill-opacity: 1;" ry="0" rx="0" y="0"/></g><g class="frame-children"><g id="shape-ac826cf0-38dd-11ed-8f9a-4f82c0aca118"><g id="fills-ac826cf0-38dd-11ed-8f9a-4f82c0aca118"><path fill="none" stroke="currentColor" stroke-linecap="round" stroke-linejoin="round" rx="0" ry="0" d="M14.5,8L10.75,8C9.784,8,9,8.784,9,9.75C9,10.716,9.784,11.5,10.75,11.5L13.25,11.5C14.216,11.5,15,12.284,15,13.25C15,14.216,14.216,15,13.25,15L9,15" style="fill: none;"/></g><g id="strokes-ac826cf0-38dd-11ed-8f9a-4f82c0aca118"><g class="stroke-shape"><path stroke="currentColor" stroke-linecap="round" stroke-linejoin="round" rx="0" ry="0" d="M14.5,8L10.75,8C9.784,8,9,8.784,9,9.75C9,10.716,9.784,11.5,10.75,11.5L13.25,11.5C14.216,11.5,15,12.284,15,13.25C15,14.216,14.216,15,13.25,15L9,15" style="fill: none; stroke-width: 2; stroke: rgb(0, 0, 0); stroke-opacity: 1;"/></g></g></g><g id="shape-928f2a50-38dc-11ed-8f9a-4f82c0aca118"><g id="fills-928f2a50-38dc-11ed-8f9a-4f82c0aca118"><ellipse rx="10.999999999999972" ry="11" cx="11.999999999999972" cy="12" transform="matrix(1,0,0,1,0,0)" style="fill: rgb(0, 0, 0); fill-opacity: 0;"/></g><g id="strokes-928f2a50-38dc-11ed-8f9a-4f82c0aca118"><g class="inner-stroke-shape" transform="matrix(1,0,0,1,0,0)"><defs><clipPath id="inner-stroke-576056a0-38de-11ed-8cb0-a1ea6145bdaf--0"><use href="#stroke-shape-576056a0-38de-11ed-8cb0-a1ea6145bdaf--0"/></clipPath><ellipse rx="10.999999999999972" ry="11" cx="11.999999999999972" cy="12" id="stroke-shape-576056a0-38de-11ed-8cb0-a1ea6145bdaf--0" style="stroke-width: 4; stroke: rgb(0, 0, 0); stroke-opacity: 1;"/></defs><use href="#stroke-shape-576056a0-38de-11ed-8cb0-a1ea6145bdaf--0" clip-path="url('#inner-stroke-576056a0-38de-11ed-8cb0-a1ea6145bdaf--0')"/></g></g></g><g id="shape-ac81d0b0-38dd-11ed-8f9a-4f82c0aca118"><g id="fills-ac81d0b0-38dd-11ed-8f9a-4f82c0aca118"><path stroke="currentColor" fill="none" stroke-linejoin="round" stroke-linecap="round" rx="0" ry="0" d="M12,6L12,17" style="fill: none;"/></g><g id="strokes-ac81d0b0-38dd-11ed-8f9a-4f82c0aca118"><g class="stroke-shape"><path stroke="currentColor" stroke-linejoin="round" stroke-linecap="round" rx="0" ry="0" d="M12,6L12,17" style="stroke-width: 2; stroke: rgb(0, 0, 0); stroke-opacity: 1;"/></g></g></g></g></g></g></svg>